<mxfile host="app.diagrams.net" agent="Mozilla/5.0 (Windows NT 10.0; Win64; x64) AppleWebKit/537.36 (KHTML, like Gecko) Chrome/139.0.0.0 Safari/537.36" version="28.1.1">
  <diagram name="Página-1" id="sstNbqrs8nOTbjYrz7PI">
    <mxGraphModel dx="1426" dy="1920" grid="1" gridSize="10" guides="1" tooltips="1" connect="1" arrows="1" fold="1" page="1" pageScale="1" pageWidth="827" pageHeight="1169" math="0" shadow="0">
      <root>
        <mxCell id="0" />
        <mxCell id="1" parent="0" />
        <mxCell id="gkBUzeEDDQIDYhiJ-hZV-32" style="edgeStyle=orthogonalEdgeStyle;rounded=0;orthogonalLoop=1;jettySize=auto;html=1;exitX=0.5;exitY=1;exitDx=0;exitDy=0;fontSize=14;startArrow=none;" parent="1" source="gkBUzeEDDQIDYhiJ-hZV-31" target="gkBUzeEDDQIDYhiJ-hZV-2" edge="1">
          <mxGeometry relative="1" as="geometry" />
        </mxCell>
        <mxCell id="gkBUzeEDDQIDYhiJ-hZV-1" value="&lt;b style=&quot;background-color: transparent; color: light-dark(rgb(0, 0, 0), rgb(255, 255, 255));&quot;&gt;Datasets&lt;/b&gt;&lt;div&gt;&lt;b style=&quot;background-color: transparent; color: light-dark(rgb(0, 0, 0), rgb(255, 255, 255));&quot;&gt;originales&lt;/b&gt;&lt;/div&gt;" style="rounded=1;whiteSpace=wrap;html=1;fontSize=16;" parent="1" vertex="1">
          <mxGeometry x="220" y="-40" width="120" height="60" as="geometry" />
        </mxCell>
        <mxCell id="gkBUzeEDDQIDYhiJ-hZV-13" style="edgeStyle=orthogonalEdgeStyle;rounded=0;orthogonalLoop=1;jettySize=auto;html=1;exitX=1;exitY=0.5;exitDx=0;exitDy=0;entryX=0;entryY=0.5;entryDx=0;entryDy=0;fontSize=14;" parent="1" source="gkBUzeEDDQIDYhiJ-hZV-2" target="gkBUzeEDDQIDYhiJ-hZV-4" edge="1">
          <mxGeometry relative="1" as="geometry" />
        </mxCell>
        <mxCell id="gkBUzeEDDQIDYhiJ-hZV-2" value="&lt;font style=&quot;font-size: 16px;&quot;&gt;Datasets&lt;/font&gt;&lt;div&gt;&lt;font style=&quot;font-size: 16px;&quot;&gt;procesados&lt;/font&gt;&lt;/div&gt;" style="rounded=0;whiteSpace=wrap;html=1;fontSize=16;" parent="1" vertex="1">
          <mxGeometry x="220" y="110" width="120" height="60" as="geometry" />
        </mxCell>
        <mxCell id="gkBUzeEDDQIDYhiJ-hZV-11" style="edgeStyle=orthogonalEdgeStyle;rounded=0;orthogonalLoop=1;jettySize=auto;html=1;exitX=1;exitY=0.5;exitDx=0;exitDy=0;entryX=0;entryY=0.5;entryDx=0;entryDy=0;fontSize=18;" parent="1" source="gkBUzeEDDQIDYhiJ-hZV-3" target="gkBUzeEDDQIDYhiJ-hZV-5" edge="1">
          <mxGeometry relative="1" as="geometry">
            <Array as="points">
              <mxPoint x="370" y="265" />
              <mxPoint x="370" y="225" />
            </Array>
          </mxGeometry>
        </mxCell>
        <mxCell id="gkBUzeEDDQIDYhiJ-hZV-12" style="edgeStyle=orthogonalEdgeStyle;rounded=0;orthogonalLoop=1;jettySize=auto;html=1;exitX=1;exitY=0.5;exitDx=0;exitDy=0;entryX=0;entryY=0.5;entryDx=0;entryDy=0;fontSize=18;" parent="1" source="gkBUzeEDDQIDYhiJ-hZV-3" target="gkBUzeEDDQIDYhiJ-hZV-6" edge="1">
          <mxGeometry relative="1" as="geometry">
            <Array as="points">
              <mxPoint x="370" y="265" />
              <mxPoint x="370" y="305" />
            </Array>
          </mxGeometry>
        </mxCell>
        <mxCell id="gkBUzeEDDQIDYhiJ-hZV-34" value="&lt;i style=&quot;font-size: 16px;&quot;&gt;Generación&lt;/i&gt;" style="edgeLabel;html=1;align=center;verticalAlign=middle;resizable=0;points=[];fontSize=16;" parent="gkBUzeEDDQIDYhiJ-hZV-12" vertex="1" connectable="0">
          <mxGeometry x="-0.3944" y="3" relative="1" as="geometry">
            <mxPoint x="1" y="3" as="offset" />
          </mxGeometry>
        </mxCell>
        <mxCell id="gkBUzeEDDQIDYhiJ-hZV-3" value="&lt;font style=&quot;font-size: 16px;&quot;&gt;BRITE&lt;/font&gt;" style="rounded=1;whiteSpace=wrap;html=1;fontSize=16;" parent="1" vertex="1">
          <mxGeometry x="110" y="235" width="120" height="50" as="geometry" />
        </mxCell>
        <mxCell id="YEF2aQFhz0wZ6BRfE0Xb-8" style="edgeStyle=orthogonalEdgeStyle;rounded=0;orthogonalLoop=1;jettySize=auto;html=1;exitX=1;exitY=0.5;exitDx=0;exitDy=0;entryX=0.5;entryY=0;entryDx=0;entryDy=0;" parent="1" source="gkBUzeEDDQIDYhiJ-hZV-4" target="gkBUzeEDDQIDYhiJ-hZV-21" edge="1">
          <mxGeometry relative="1" as="geometry" />
        </mxCell>
        <mxCell id="gkBUzeEDDQIDYhiJ-hZV-4" value="&lt;font style=&quot;font-size: 16px;&quot;&gt;Definición de&lt;/font&gt;&lt;div&gt;&lt;font style=&quot;font-size: 16px;&quot;&gt;nodos reales&lt;/font&gt;&lt;/div&gt;" style="rounded=0;whiteSpace=wrap;html=1;fontSize=16;" parent="1" vertex="1">
          <mxGeometry x="430" y="110" width="120" height="60" as="geometry" />
        </mxCell>
        <mxCell id="YEF2aQFhz0wZ6BRfE0Xb-6" style="edgeStyle=orthogonalEdgeStyle;rounded=0;orthogonalLoop=1;jettySize=auto;html=1;exitX=1;exitY=0.5;exitDx=0;exitDy=0;entryX=0;entryY=0.25;entryDx=0;entryDy=0;" parent="1" source="gkBUzeEDDQIDYhiJ-hZV-5" target="gkBUzeEDDQIDYhiJ-hZV-9" edge="1">
          <mxGeometry relative="1" as="geometry" />
        </mxCell>
        <mxCell id="gkBUzeEDDQIDYhiJ-hZV-5" value="&lt;font style=&quot;font-size: 16px;&quot;&gt;Nodos&lt;/font&gt;" style="rounded=0;whiteSpace=wrap;html=1;fontSize=16;" parent="1" vertex="1">
          <mxGeometry x="430" y="200" width="120" height="50" as="geometry" />
        </mxCell>
        <mxCell id="YEF2aQFhz0wZ6BRfE0Xb-7" style="edgeStyle=orthogonalEdgeStyle;rounded=0;orthogonalLoop=1;jettySize=auto;html=1;exitX=1;exitY=0.5;exitDx=0;exitDy=0;entryX=0;entryY=0.75;entryDx=0;entryDy=0;" parent="1" source="gkBUzeEDDQIDYhiJ-hZV-6" target="gkBUzeEDDQIDYhiJ-hZV-9" edge="1">
          <mxGeometry relative="1" as="geometry" />
        </mxCell>
        <mxCell id="gkBUzeEDDQIDYhiJ-hZV-6" value="&lt;font style=&quot;font-size: 16px;&quot;&gt;Enlaces&lt;/font&gt;" style="rounded=0;whiteSpace=wrap;html=1;fontSize=16;" parent="1" vertex="1">
          <mxGeometry x="430" y="280" width="120" height="50" as="geometry" />
        </mxCell>
        <mxCell id="gkBUzeEDDQIDYhiJ-hZV-22" style="edgeStyle=orthogonalEdgeStyle;rounded=0;orthogonalLoop=1;jettySize=auto;html=1;exitX=1;exitY=0.5;exitDx=0;exitDy=0;fontSize=14;" parent="1" source="gkBUzeEDDQIDYhiJ-hZV-9" target="gkBUzeEDDQIDYhiJ-hZV-21" edge="1">
          <mxGeometry relative="1" as="geometry" />
        </mxCell>
        <mxCell id="gkBUzeEDDQIDYhiJ-hZV-9" value="&lt;font style=&quot;font-size: 16px;&quot;&gt;&lt;b style=&quot;&quot;&gt;P&lt;br&gt;A&lt;br&gt;R&lt;br&gt;S&lt;br&gt;E&lt;br&gt;R&lt;/b&gt;&lt;/font&gt;" style="rounded=0;whiteSpace=wrap;html=1;" parent="1" vertex="1">
          <mxGeometry x="620" y="185" width="60" height="160" as="geometry" />
        </mxCell>
        <mxCell id="gkBUzeEDDQIDYhiJ-hZV-29" style="edgeStyle=orthogonalEdgeStyle;rounded=0;orthogonalLoop=1;jettySize=auto;html=1;exitX=1;exitY=0.5;exitDx=0;exitDy=0;entryX=0;entryY=0.5;entryDx=0;entryDy=0;fontSize=16;startArrow=none;" parent="1" source="gkBUzeEDDQIDYhiJ-hZV-38" target="gkBUzeEDDQIDYhiJ-hZV-28" edge="1">
          <mxGeometry relative="1" as="geometry" />
        </mxCell>
        <mxCell id="YEF2aQFhz0wZ6BRfE0Xb-9" style="edgeStyle=orthogonalEdgeStyle;rounded=0;orthogonalLoop=1;jettySize=auto;html=1;exitX=1;exitY=0.5;exitDx=0;exitDy=0;entryX=0;entryY=0.5;entryDx=0;entryDy=0;" parent="1" source="gkBUzeEDDQIDYhiJ-hZV-21" target="gkBUzeEDDQIDYhiJ-hZV-38" edge="1">
          <mxGeometry relative="1" as="geometry" />
        </mxCell>
        <mxCell id="gkBUzeEDDQIDYhiJ-hZV-21" value="&lt;font style=&quot;font-size: 16px;&quot;&gt;Topologías aleatorias con características reales&lt;/font&gt;" style="rounded=1;whiteSpace=wrap;html=1;fontSize=16;" parent="1" vertex="1">
          <mxGeometry x="720" y="232.5" width="170" height="65" as="geometry" />
        </mxCell>
        <mxCell id="gkBUzeEDDQIDYhiJ-hZV-44" style="edgeStyle=orthogonalEdgeStyle;rounded=0;orthogonalLoop=1;jettySize=auto;html=1;exitX=0.5;exitY=1;exitDx=0;exitDy=0;entryX=0.5;entryY=0;entryDx=0;entryDy=0;fontSize=14;startArrow=none;" parent="1" source="gkBUzeEDDQIDYhiJ-hZV-45" target="gkBUzeEDDQIDYhiJ-hZV-39" edge="1">
          <mxGeometry relative="1" as="geometry" />
        </mxCell>
        <mxCell id="gkBUzeEDDQIDYhiJ-hZV-28" value="&lt;font style=&quot;font-size: 16px;&quot;&gt;&lt;b&gt;Modelos&amp;nbsp;&lt;/b&gt;&lt;b style=&quot;font-size: 16px;&quot;&gt;ML/DL&amp;nbsp;&lt;/b&gt;&lt;/font&gt;" style="rounded=0;whiteSpace=wrap;html=1;fontSize=16;" parent="1" vertex="1">
          <mxGeometry x="1100.5" y="235" width="130" height="60" as="geometry" />
        </mxCell>
        <mxCell id="gkBUzeEDDQIDYhiJ-hZV-33" value="" style="edgeStyle=orthogonalEdgeStyle;rounded=0;orthogonalLoop=1;jettySize=auto;html=1;exitX=0.5;exitY=1;exitDx=0;exitDy=0;fontSize=14;endArrow=none;" parent="1" source="gkBUzeEDDQIDYhiJ-hZV-1" edge="1">
          <mxGeometry relative="1" as="geometry">
            <mxPoint x="279.9999999999998" y="39.94" as="sourcePoint" />
            <mxPoint x="280.0000000000002" y="49.94" as="targetPoint" />
          </mxGeometry>
        </mxCell>
        <mxCell id="gkBUzeEDDQIDYhiJ-hZV-31" value="&lt;font style=&quot;font-size: 16px;&quot;&gt;&lt;i style=&quot;font-size: 16px;&quot;&gt;Procesado&lt;/i&gt;&lt;/font&gt;" style="text;html=1;strokeColor=none;fillColor=none;align=center;verticalAlign=middle;whiteSpace=wrap;rounded=0;fontSize=16;" parent="1" vertex="1">
          <mxGeometry x="250" y="50" width="60" height="30" as="geometry" />
        </mxCell>
        <mxCell id="gkBUzeEDDQIDYhiJ-hZV-53" style="edgeStyle=orthogonalEdgeStyle;rounded=0;orthogonalLoop=1;jettySize=auto;html=1;entryX=0.5;entryY=1;entryDx=0;entryDy=0;fontSize=14;startArrow=none;exitX=0.5;exitY=0;exitDx=0;exitDy=0;" parent="1" source="gkBUzeEDDQIDYhiJ-hZV-54" target="gkBUzeEDDQIDYhiJ-hZV-38" edge="1">
          <mxGeometry relative="1" as="geometry">
            <mxPoint x="975.5" y="365" as="sourcePoint" />
          </mxGeometry>
        </mxCell>
        <mxCell id="gkBUzeEDDQIDYhiJ-hZV-39" value="&lt;font style=&quot;font-size: 16px;&quot;&gt;Clasificación de rutas&lt;/font&gt;" style="rounded=0;whiteSpace=wrap;html=1;fontSize=16;" parent="1" vertex="1">
          <mxGeometry x="1090.5" y="380" width="150" height="60" as="geometry" />
        </mxCell>
        <mxCell id="gkBUzeEDDQIDYhiJ-hZV-38" value="&lt;b style=&quot;font-size: 16px;&quot;&gt;DEN2NE&lt;/b&gt;" style="ellipse;whiteSpace=wrap;html=1;aspect=fixed;fontSize=16;" parent="1" vertex="1">
          <mxGeometry x="930.5" y="220" width="90" height="90" as="geometry" />
        </mxCell>
        <mxCell id="gkBUzeEDDQIDYhiJ-hZV-46" value="" style="edgeStyle=orthogonalEdgeStyle;rounded=0;orthogonalLoop=1;jettySize=auto;html=1;exitX=0.5;exitY=1;exitDx=0;exitDy=0;entryX=0.5;entryY=0;entryDx=0;entryDy=0;fontSize=14;endArrow=none;" parent="1" source="gkBUzeEDDQIDYhiJ-hZV-28" target="gkBUzeEDDQIDYhiJ-hZV-45" edge="1">
          <mxGeometry relative="1" as="geometry">
            <mxPoint x="1160.4999999999995" y="295" as="sourcePoint" />
            <mxPoint x="1160.4999999999995" y="365" as="targetPoint" />
          </mxGeometry>
        </mxCell>
        <mxCell id="gkBUzeEDDQIDYhiJ-hZV-45" value="&lt;i style=&quot;font-size: 16px;&quot;&gt;Entrenamiento&lt;/i&gt;" style="text;html=1;strokeColor=none;fillColor=none;align=center;verticalAlign=middle;whiteSpace=wrap;rounded=0;fontSize=16;" parent="1" vertex="1">
          <mxGeometry x="1135.5" y="320" width="60" height="30" as="geometry" />
        </mxCell>
        <mxCell id="gkBUzeEDDQIDYhiJ-hZV-55" value="" style="edgeStyle=orthogonalEdgeStyle;rounded=0;orthogonalLoop=1;jettySize=auto;html=1;exitX=0;exitY=0.5;exitDx=0;exitDy=0;entryX=0.5;entryY=1;entryDx=0;entryDy=0;fontSize=14;endArrow=none;" parent="1" source="gkBUzeEDDQIDYhiJ-hZV-39" target="gkBUzeEDDQIDYhiJ-hZV-54" edge="1">
          <mxGeometry relative="1" as="geometry">
            <mxPoint x="1085.5" y="410" as="sourcePoint" />
            <mxPoint x="975.5" y="310" as="targetPoint" />
          </mxGeometry>
        </mxCell>
        <mxCell id="gkBUzeEDDQIDYhiJ-hZV-54" value="&lt;i style=&quot;font-size: 16px;&quot;&gt;Reconfiguración&lt;/i&gt;" style="text;html=1;strokeColor=none;fillColor=none;align=center;verticalAlign=middle;whiteSpace=wrap;rounded=0;fontSize=16;" parent="1" vertex="1">
          <mxGeometry x="945.5" y="360" width="60" height="30" as="geometry" />
        </mxCell>
      </root>
    </mxGraphModel>
  </diagram>
</mxfile>
